<svg width="20" height="20" viewBox="0 0 20 20" fill="none" xmlns="http://www.w3.org/2000/svg">
<path d="M16.219 1.9429C16.872 2.4549 17.322 3.2819 17.506 4.1479L17.571 4.1739L19.616 5.1199C19.7302 5.17249 19.8271 5.25662 19.8951 5.36238C19.9631 5.46815 19.9995 5.59115 20 5.7169V18.0839C19.9993 18.1866 19.9747 18.2878 19.9284 18.3795C19.882 18.4711 19.815 18.5508 19.7326 18.6122C19.6503 18.6736 19.5548 18.7151 19.4537 18.7335C19.3526 18.7518 19.2487 18.7465 19.15 18.7179L13.481 17.1179L6.741 18.9759C6.61942 19.0095 6.49082 19.0081 6.37 18.9719L0.474 17.2169C0.337721 17.1769 0.21799 17.094 0.132595 16.9805C0.047201 16.867 0.00069966 16.7289 0 16.5869L0 3.9979C0 3.5579 0.428 3.2419 0.855 3.3659L6.557 5.0269L9.455 4.1399C9.495 4.1279 9.53567 4.11957 9.577 4.1149C9.689 3.4589 10.002 2.8289 10.527 2.2149C11.15 1.4849 12.243 1.0569 13.308 1.0059C14.413 0.952902 15.257 1.1889 16.218 1.9419M1.333 4.8809V16.0959L6.203 17.5449V6.2979L1.333 4.8809ZM9.542 5.4949L7.536 6.1079V17.3869L12.601 15.9929V12.6979C12.601 12.3339 12.9 12.0389 13.268 12.0389C13.636 12.0389 13.934 12.3339 13.934 12.6989V15.8759L18.667 17.2109V6.1359L17.547 5.6159C17.5283 5.7259 17.504 5.83357 17.474 5.9389C17.2574 6.70598 16.8925 7.42316 16.4 8.0499L13.923 11.1429C13.8578 11.2242 13.7745 11.2892 13.6797 11.3327C13.585 11.3762 13.4814 11.3969 13.3772 11.3933C13.273 11.3897 13.1711 11.3619 13.0796 11.312C12.9881 11.2621 12.9095 11.1915 12.85 11.1059L10.535 7.7529C10.1523 7.22024 9.88533 6.74157 9.734 6.3169C9.63885 6.05112 9.57443 5.77533 9.542 5.4949ZM13.372 2.3239C12.646 2.3589 11.9 2.6509 11.545 3.0659C11.118 3.5659 10.908 4.0339 10.866 4.5079C10.816 5.0789 10.85 5.4819 10.992 5.8809C11.097 6.1759 11.306 6.5499 11.629 7.0009L13.44 9.6229L15.35 7.2379C15.7356 6.74562 16.0213 6.18274 16.191 5.5809C16.431 4.7409 16.069 3.5069 15.391 2.9769C14.696 2.4319 14.171 2.2849 13.373 2.3239M13.511 3.0209C14.615 3.0209 15.511 3.9059 15.511 4.9979C15.5076 5.52516 15.295 6.02951 14.92 6.40018C14.545 6.77086 14.0383 6.97756 13.511 6.9749C12.407 6.9749 11.511 6.0899 11.511 4.9979C11.511 3.9059 12.407 3.0209 13.511 3.0209ZM13.511 4.3389C13.4239 4.33838 13.3376 4.355 13.257 4.38784C13.1763 4.42067 13.1029 4.46906 13.041 4.53026C12.9791 4.59145 12.9298 4.66425 12.896 4.74449C12.8622 4.82472 12.8445 4.91084 12.844 4.9979C12.844 5.3619 13.143 5.6569 13.511 5.6569C13.5981 5.6573 13.6844 5.64054 13.7649 5.60758C13.8455 5.57463 13.9188 5.52612 13.9807 5.46484C14.0425 5.40355 14.0917 5.33068 14.1254 5.25039C14.1591 5.17011 14.1766 5.08397 14.177 4.9969C14.1757 4.82141 14.1048 4.6536 13.98 4.53026C13.8551 4.40692 13.6865 4.3381 13.511 4.3389Z" fill="black"/>
</svg>
