<svg width="24" height="24" viewBox="0 0 24 24" fill="none" xmlns="http://www.w3.org/2000/svg">
<path fill-rule="evenodd" clip-rule="evenodd" d="M7.49977 4.75C7.49977 4.5315 9.75777 3 11.9998 3C14.2418 3 16.4998 4.5315 16.4998 4.75C16.4998 5.53 16.4168 5.992 16.3468 6.2435C16.3003 6.4085 16.1458 6.5 15.9743 6.5H8.02527C7.85377 6.5 7.69927 6.4085 7.65277 6.2435C7.58277 5.992 7.49977 5.53 7.49977 4.75ZM11.2498 4.5C11.1172 4.5 10.99 4.55268 10.8962 4.64645C10.8025 4.74021 10.7498 4.86739 10.7498 5C10.7498 5.13261 10.8025 5.25979 10.8962 5.35355C10.99 5.44732 11.1172 5.5 11.2498 5.5H12.7498C12.8824 5.5 13.0096 5.44732 13.1033 5.35355C13.1971 5.25979 13.2498 5.13261 13.2498 5C13.2498 4.86739 13.1971 4.74021 13.1033 4.64645C13.0096 4.55268 12.8824 4.5 12.7498 4.5H11.2498ZM8.01877 9.609C6.35377 9.094 6.77377 8.174 7.40877 7.5H16.7298C17.2378 8.149 17.5103 9.0245 15.9748 9.5485C15.9914 9.69683 15.9998 9.84733 15.9998 10C15.9996 10.5416 15.8893 11.0776 15.6758 11.5753C15.4623 12.0731 15.1499 12.5223 14.7576 12.8958C14.3652 13.2692 13.9011 13.559 13.3935 13.7478C12.8858 13.9365 12.345 14.0201 11.804 13.9936C11.2631 13.9671 10.7331 13.831 10.2463 13.5936C9.75946 13.3561 9.32594 13.0223 8.97199 12.6123C8.61804 12.2023 8.35105 11.7247 8.1872 11.2085C8.02334 10.6922 7.96605 10.1481 8.01877 9.609ZM11.8638 10C13.1848 10 14.2088 9.93 14.9938 9.808C14.9978 9.87133 14.9998 9.93533 14.9998 10C14.9994 10.4004 14.9189 10.7966 14.763 11.1654C14.6072 11.5342 14.379 11.868 14.0921 12.1473C13.8052 12.4265 13.4653 12.6455 13.0924 12.7913C12.7195 12.9371 12.3212 13.0068 11.921 12.9963C11.5208 12.9858 11.1267 12.8953 10.762 12.7301C10.3973 12.5649 10.0693 12.3284 9.79746 12.0345C9.52559 11.7405 9.31531 11.3952 9.179 11.0187C9.04269 10.6423 8.98311 10.2423 9.00377 9.8425C9.73527 9.9435 10.6728 10 11.8638 10ZM16.2083 17.3C15.7561 16.5943 15.1336 16.0138 14.3981 15.6119C13.6627 15.2099 12.8379 14.9995 11.9998 15C11.1613 14.9994 10.3362 15.2098 9.60042 15.6119C8.86467 16.0141 8.24199 16.5949 7.78977 17.301C7.62156 17.0428 7.36391 16.8558 7.06627 16.776L6.10027 16.5175C5.78009 16.4317 5.43893 16.4765 5.15181 16.6422C4.8647 16.8079 4.65516 17.0808 4.56927 17.401L4.18127 18.85C4.13878 19.0086 4.12794 19.174 4.14937 19.3367C4.1708 19.4995 4.22408 19.6564 4.30616 19.7986C4.38825 19.9408 4.49754 20.0654 4.62779 20.1653C4.75804 20.2652 4.9067 20.3385 5.06527 20.381L6.03077 20.64C6.1932 20.6835 6.36274 20.6938 6.52924 20.6703C6.69574 20.6467 6.85578 20.5898 6.99977 20.503C7.00017 20.6356 7.05323 20.7626 7.14728 20.8561C7.24133 20.9496 7.36867 21.0019 7.50127 21.0015C7.63388 21.0011 7.7609 20.948 7.85439 20.854C7.94788 20.7599 8.00017 20.6326 7.99977 20.5V20C7.99977 19.8093 8.01277 19.6222 8.03877 19.4385L10.6408 20.136C10.7616 20.3945 10.9536 20.6132 11.1943 20.7665C11.435 20.9197 11.7144 21.0011 11.9998 21.0011C12.2851 21.0011 12.5645 20.9197 12.8053 20.7665C13.046 20.6132 13.238 20.3945 13.3588 20.136L15.9608 19.4385C15.9864 19.6222 15.9994 19.8093 15.9998 20V20.5C15.9991 20.6326 16.0512 20.76 16.1445 20.8543C16.2378 20.9485 16.3647 21.0018 16.4973 21.0025C16.6299 21.0032 16.7573 20.9511 16.8516 20.8578C16.9458 20.7645 16.9991 20.6376 16.9998 20.505C17.2798 20.673 17.6258 20.7315 17.9663 20.64L18.9323 20.3815C19.0909 20.339 19.2395 20.2657 19.3698 20.1658C19.5 20.0659 19.6093 19.9413 19.6914 19.7991C19.7735 19.6569 19.8268 19.5 19.8482 19.3372C19.8696 19.1745 19.8588 19.0091 19.8163 18.8505L19.4278 17.4015C19.3419 17.0813 19.1323 16.8084 18.8452 16.6427C18.5581 16.477 18.217 16.4322 17.8968 16.518L16.9308 16.7765C16.6338 16.8561 16.3766 17.0428 16.2083 17.3ZM8.30127 18.473C8.57152 17.8199 9.00978 17.25 9.57155 16.8211C10.1333 16.3922 10.7986 16.1196 11.4998 16.031V18.0855C11.2756 18.1647 11.0734 18.2961 10.91 18.4689C10.7465 18.6416 10.6265 18.8507 10.5598 19.079L8.30127 18.473ZM15.6983 18.473C15.428 17.8199 14.9898 17.25 14.428 16.8211C13.8662 16.3922 13.201 16.1196 12.4998 16.031V18.0855C12.9518 18.2455 13.3048 18.6155 13.4398 19.079L15.6983 18.473ZM11.9998 20C12.1324 20 12.2596 19.9473 12.3533 19.8536C12.4471 19.7598 12.4998 19.6326 12.4998 19.5C12.4998 19.3674 12.4471 19.2402 12.3533 19.1464C12.2596 19.0527 12.1324 19 11.9998 19C11.8672 19 11.74 19.0527 11.6462 19.1464C11.5525 19.2402 11.4998 19.3674 11.4998 19.5C11.4998 19.6326 11.5525 19.7598 11.6462 19.8536C11.74 19.9473 11.8672 20 11.9998 20Z" fill="black"/>
</svg>
