<svg width="24" height="24" viewBox="0 0 24 24" fill="none" xmlns="http://www.w3.org/2000/svg">
<ellipse cx="1.38462" cy="18.5" rx="1.38462" ry="1.5" fill="black"/>
<path d="M4.61523 18.5H21.2306" stroke="black"/>
<path d="M21.2308 13.5C21.523 13.5 21.8134 13.5623 22.0858 13.6845C22.3584 13.8068 22.6088 13.9873 22.8215 14.2178C23.0343 14.4484 23.2051 14.7242 23.3222 15.0305C23.4393 15.3368 23.5 15.6664 23.5 16C23.5 16.3336 23.4393 16.6632 23.3222 16.9695C23.2051 17.2758 23.0343 17.5516 22.8215 17.7822C22.6088 18.0127 22.3584 18.1932 22.0858 18.3155C21.8134 18.4377 21.523 18.5 21.2308 18.5" stroke="black"/>
<path d="M11.0768 13.5C10.7847 13.5 10.4943 13.4377 10.2218 13.3155C9.94924 13.1932 9.69886 13.0127 9.48611 12.7822C9.27328 12.5516 9.10255 12.2758 8.98544 11.9695C8.86831 11.6632 8.80762 11.3336 8.80762 11C8.80762 10.6664 8.86831 10.3368 8.98544 10.0305C9.10255 9.72422 9.27328 9.44838 9.48611 9.21782C9.69886 8.98734 9.94924 8.80685 10.2218 8.68454C10.4943 8.56229 10.7847 8.5 11.0768 8.5" stroke="black"/>
<line x1="21.231" y1="13.5" x2="11.0771" y2="13.5" stroke="black"/>
<path d="M11.0771 8.5H17.5387" stroke="black" stroke-linecap="round"/>
<g clip-path="url(#clip0_799_547)">
<path d="M19.385 6.76229C19.2257 6.76229 19.073 6.69903 18.9604 6.58642C18.8477 6.47381 18.7845 6.32107 18.7845 6.16181C18.7845 6.00256 18.8477 5.84982 18.9604 5.73721C19.073 5.6246 19.2257 5.56133 19.385 5.56133C19.5442 5.56133 19.697 5.6246 19.8096 5.73721C19.9222 5.84982 19.9854 6.00256 19.9854 6.16181C19.9854 6.24067 19.9699 6.31875 19.9397 6.39161C19.9096 6.46446 19.8653 6.53066 19.8096 6.58642C19.7538 6.64218 19.6876 6.68641 19.6148 6.71659C19.5419 6.74676 19.4638 6.76229 19.385 6.76229ZM19.385 4.48047C18.939 4.48047 18.5114 4.65761 18.1961 4.97292C17.8808 5.28824 17.7036 5.71589 17.7036 6.16181C17.7036 7.42282 19.385 9.28431 19.385 9.28431C19.385 9.28431 21.0663 7.42282 21.0663 6.16181C21.0663 5.71589 20.8892 5.28824 20.5738 4.97292C20.2585 4.65761 19.8309 4.48047 19.385 4.48047Z" fill="black"/>
</g>
<defs>
<clipPath id="clip0_799_547">
<rect width="5.76461" height="5.76461" fill="white" transform="translate(16.5024 4)"/>
</clipPath>
</defs>
</svg>
